<svg width="14" height="15" fill="none" xmlns="http://www.w3.org/2000/svg"><path d="M13.017 9.87c-.355-.611-.78-1.78-.78-3.87v-.444C12.238 2.652 9.907.271 7.04.25H7A5.244 5.244 0 001.763 5.5V6c0 2.09-.424 3.258-.78 3.87a1.256 1.256 0 00.453 1.714c.19.11.406.167.625.166h2.2a2.75 2.75 0 005.477 0h2.2a1.235 1.235 0 001.082-.626 1.255 1.255 0 00-.003-1.253zM7 12.75a1.252 1.252 0 01-1.225-1h2.45a1.252 1.252 0 01-1.225 1zm-4.523-2.5c.643-1.347.786-3.028.786-4.25v-.5A3.744 3.744 0 017 1.75h.029c2.045.015 3.709 1.723 3.709 3.806V6c0 1.222.142 2.903.785 4.25H2.477z" fill="#fff"/></svg>