<svg width="16" height="16" fill="none" xmlns="http://www.w3.org/2000/svg"><path d="M15.668 7.872L8.848.655 8.393.171A.54.54 0 008 0a.54.54 0 00-.392.171l-7.276 7.7a1.201 1.201 0 00-.248.395A1.256 1.256 0 000 8.73c.007.658.524 1.183 1.145 1.183h.75V16h12.21V9.914h.765c.302 0 .586-.125.8-.351a1.2 1.2 0 00.245-.389A1.25 1.25 0 0016 8.716c0-.317-.118-.618-.332-.844zm-6.68 6.783H7.012v-3.812h1.976v3.812zm3.846-6.086v6.086h-2.716v-4.26c0-.414-.316-.748-.706-.748H6.588c-.39 0-.706.334-.706.747v4.26H3.166V8.57H1.472l6.53-6.909.407.432 6.12 6.477h-1.695z" fill="#fff"/></svg>