<svg width="16" height="16" fill="none" xmlns="http://www.w3.org/2000/svg"><path d="M14.546 4.71v5.834a3.557 3.557 0 00-1.835-.29c-.635.067-1.224.298-1.677.657-.453.359-.744.826-.827 1.33a1.916 1.916 0 00.365 1.454c.32.44.814.783 1.406.977a3.625 3.625 0 001.866.097c.619-.131 1.165-.42 1.555-.824.39-.402.601-.896.601-1.404V.924a.773.773 0 00-.13-.426 1.027 1.027 0 00-.363-.33 1.353 1.353 0 00-.514-.16 1.451 1.451 0 00-.55.046L5.136 2.69a1.183 1.183 0 00-.56.338.799.799 0 00-.211.53v8.138a3.556 3.556 0 00-1.834-.29c-.635.067-1.225.297-1.678.656-.453.36-.743.827-.827 1.33a1.916 1.916 0 00.364 1.454c.32.44.815.784 1.406.978a3.625 3.625 0 001.866.098c.619-.132 1.165-.421 1.555-.824.39-.402.602-.896.602-1.403V7.182l8.728-2.47v-.001zm0-1.224l-8.728 2.47V3.72l8.728-2.471v2.237zm-1.455 7.902c.386 0 .756.122 1.028.338.273.216.427.51.427.815 0 .306-.154.6-.427.816a1.666 1.666 0 01-1.028.338 1.67 1.67 0 01-1.029-.338c-.272-.216-.426-.51-.426-.816 0-.306.154-.599.426-.815a1.666 1.666 0 011.029-.338zM2.909 12.541c.386 0 .756.122 1.029.338.272.216.426.51.426.816 0 .306-.154.599-.426.815a1.667 1.667 0 01-1.029.338c-.386 0-.756-.122-1.028-.338-.273-.216-.426-.51-.426-.815 0-.306.153-.6.426-.816a1.667 1.667 0 011.028-.338z" fill="#FFFCFC"/></svg>