<svg width="18" height="18" fill="none" xmlns="http://www.w3.org/2000/svg"><path d="M9 16.875a7.875 7.875 0 110-15.75 7.875 7.875 0 010 15.75zM9 18A9 9 0 109 0a9 9 0 000 18z" fill="#7E7E7E"/><path d="M4.82 10.763a.563.563 0 01.769.206A3.935 3.935 0 009 12.938a3.935 3.935 0 003.411-1.97.563.563 0 11.974.563 5.06 5.06 0 01-6.917 1.854 5.06 5.06 0 01-1.853-1.854.562.562 0 01.206-.768zm3.055-3.45C7.875 8.244 7.371 9 6.75 9s-1.125-.756-1.125-1.688c0-.931.504-1.687 1.125-1.687s1.125.756 1.125 1.688zm4.5 0c0 .931-.504 1.687-1.125 1.687s-1.125-.756-1.125-1.688c0-.931.504-1.687 1.125-1.687s1.125.756 1.125 1.688z" fill="#7E7E7E"/></svg>